<svg width="1280" height="400" viewBox="0 0 580 181" role="img" xmlns="http://www.w3.org/2000/svg">
  <title>SolveLicita — GitHub Header</title>

  <svg x="266" y="23" width="48" height="48" viewBox="0 0 100 100">
    <rect width="100" height="100" rx="18" fill="#185FA5"/>
    <path d="M50,18 C74,12 82,32 66,42 C50,52 30,54 18,66 C8,78 22,92 50,90"
          fill="none" stroke="white" stroke-width="8.5" stroke-linecap="round" stroke-linejoin="round"/>
    <path d="M50,18 V90 H76"
          fill="none" stroke="white" stroke-width="8.5" stroke-linecap="round" stroke-linejoin="round"/>
  </svg>

  <text x="290" y="97"
        font-family="system-ui,-apple-system,sans-serif"
        font-size="22" font-weight="700" letter-spacing="-0.7" text-anchor="middle">
    <tspan fill="#0B1F3A">Solve</tspan><tspan fill="#185FA5">Licita</tspan>
  </text>

  <text x="290" y="116"
        font-family="system-ui,sans-serif" font-size="9.5"
        fill="#4B627D" text-anchor="middle" letter-spacing="1.6">SCORE DE SOLVÊNCIA MUNICIPAL</text>

  <line x1="210" y1="131" x2="370" y2="131" stroke="#D7E6F5" stroke-width="1"/>

  <rect x="168" y="143" width="76" height="20" rx="10" fill="#EAF3FC" stroke="#B9D4EE" stroke-width="0.8"/>
  <text x="206" y="156.5" font-family="system-ui,sans-serif" font-size="9"
        fill="#185FA5" text-anchor="middle" font-weight="600">Open Data</text>

  <rect x="252" y="143" width="76" height="20" rx="10" fill="#EAF3FC" stroke="#B9D4EE" stroke-width="0.8"/>
  <text x="290" y="156.5" font-family="system-ui,sans-serif" font-size="9"
        fill="#185FA5" text-anchor="middle" font-weight="600">Brasil</text>

  <rect x="336" y="143" width="76" height="20" rx="10" fill="#EAF3FC" stroke="#B9D4EE" stroke-width="0.8"/>
  <text x="374" y="156.5" font-family="system-ui,sans-serif" font-size="9"
        fill="#185FA5" text-anchor="middle" font-weight="600">Municípios</text>
</svg>
